<svg id="visual" viewBox="0 0 1920 793" width="1920" height="793" xmlns="http://www.w3.org/2000/svg" xmlns:xlink="http://www.w3.org/1999/xlink" version="1.1"><path d="M0 690L29.2 684.2C58.3 678.3 116.7 666.7 174.8 671.3C233 676 291 697 349.2 696.8C407.3 696.7 465.7 675.3 523.8 649.3C582 623.3 640 592.7 698.2 601.8C756.3 611 814.7 660 872.8 665.5C931 671 989 633 1047.2 621.7C1105.3 610.3 1163.7 625.7 1221.8 633.7C1280 641.7 1338 642.3 1396.2 631.3C1454.3 620.3 1512.7 597.7 1570.8 586.5C1629 575.3 1687 575.7 1745.2 587C1803.3 598.3 1861.7 620.7 1890.8 631.8L1920 643L1920 794L1890.8 794C1861.7 794 1803.3 794 1745.2 794C1687 794 1629 794 1570.8 794C1512.7 794 1454.3 794 1396.2 794C1338 794 1280 794 1221.8 794C1163.7 794 1105.3 794 1047.2 794C989 794 931 794 872.8 794C814.7 794 756.3 794 698.2 794C640 794 582 794 523.8 794C465.7 794 407.3 794 349.2 794C291 794 233 794 174.8 794C116.7 794 58.3 794 29.2 794L0 794Z" fill="#ffffff" stroke-linecap="round" stroke-linejoin="miter"></path></svg>