<svg id="visual" viewBox="0 0 1920 793" width="1920" height="793" xmlns="http://www.w3.org/2000/svg" xmlns:xlink="http://www.w3.org/1999/xlink" version="1.1"><rect x="0" y="0" width="1920" height="793" fill="#173556"></rect><path d="M0 228L32 273.7C64 319.3 128 410.7 192 412.2C256 413.7 320 325.3 384 291C448 256.7 512 276.3 576 325.2C640 374 704 452 768 478.7C832 505.3 896 480.7 960 472.5C1024 464.3 1088 472.7 1152 483.5C1216 494.3 1280 507.7 1344 481.2C1408 454.7 1472 388.3 1536 374C1600 359.7 1664 397.3 1728 389.2C1792 381 1856 327 1888 300L1920 273L1920 0L1888 0C1856 0 1792 0 1728 0C1664 0 1600 0 1536 0C1472 0 1408 0 1344 0C1280 0 1216 0 1152 0C1088 0 1024 0 960 0C896 0 832 0 768 0C704 0 640 0 576 0C512 0 448 0 384 0C320 0 256 0 192 0C128 0 64 0 32 0L0 0Z" fill="#ffffff" stroke-linecap="round" stroke-linejoin="miter"></path></svg>